<?xml version="1.0" standalone="no"?>
<!DOCTYPE svg PUBLIC "-//W3C//DTD SVG 20010904//EN"
 "http://www.w3.org/TR/2001/REC-SVG-20010904/DTD/svg10.dtd">
<svg version="1.0" xmlns="http://www.w3.org/2000/svg"
 width="1271.000000pt" height="1280.000000pt" viewBox="0 0 1271.000000 1280.000000"
 preserveAspectRatio="xMidYMid meet">
<metadata>
Created by potrace 1.15, written by Peter Selinger 2001-2017
</metadata>
<g transform="translate(0.000000,1280.000000) scale(0.100000,-0.100000)"
fill="#673ab7" stroke="none">
<path d="M2195 10560 c-179 -26 -516 -97 -545 -115 -6 -3 9 -43 35 -95 407
-811 743 -2161 955 -3835 137 -1085 197 -2101 187 -3185 -6 -673 -24 -900
-101 -1264 -14 -66 -23 -122 -21 -125 3 -3 28 -4 55 -2 55 3 55 4 38 -68 -7
-33 -8 -55 -2 -61 11 -11 260 25 486 71 196 39 333 81 447 135 79 37 107 57
167 119 159 164 384 553 615 1067 345 766 919 1872 1593 3067 311 551 301 534
305 503 2 -15 -2 -157 -8 -317 -27 -686 -31 -827 -31 -1331 0 -973 50 -1583
170 -2059 66 -264 128 -406 276 -630 184 -281 381 -399 684 -412 199 -8 355
29 575 137 520 255 1142 868 1653 1628 597 889 1112 2045 1371 3079 156 623
227 1156 238 1775 10 590 -27 808 -190 1103 -55 100 -88 146 -142 200 -160
161 -398 224 -769 204 -180 -10 -530 -69 -554 -94 -3 -3 20 -58 53 -123 177
-353 263 -592 325 -902 58 -286 65 -370 64 -785 0 -875 -103 -1652 -319 -2415
-279 -988 -803 -1974 -1264 -2377 -205 -179 -390 -264 -581 -265 -125 -1 -211
42 -284 141 -90 123 -170 466 -212 913 -31 333 -28 1460 7 2168 24 509 107
1382 199 2098 24 181 26 355 5 431 -7 30 -29 79 -48 110 -19 31 -46 79 -60
106 -63 125 -201 195 -386 195 -36 0 -145 -14 -242 -32 l-177 -31 -150 -281
c-539 -1010 -1378 -2660 -2092 -4116 -528 -1074 -544 -1106 -547 -1080 -1 14
-14 203 -28 420 -142 2224 -367 3876 -715 5244 -97 379 -157 551 -261 739 -76
139 -128 207 -202 262 -134 102 -296 126 -572 85z"/>
</g>
</svg>
